# xmcd CD database file
#
# Track frame offsets:
#	150
#	34653
#	37245
#	61578
#	69066
#	97854
#	112427
#
# Disc length: 1886 seconds
#
# Revision: 1
# Processed by: cddbd v1.5PL3 Copyright (c) Steve Scherf et al.
# Submitted via: CDex 1.51
#
DISCID=56075c07
DTITLE=S.E.N.S. - A City Of Sadness
DYEAR=1990
DGENRE=New Age
TTITLE0=A City Of Sadness
TTITLE1=Hiromi - Flute Solo
TTITLE2=Theme Of Bunsei
TTITLE3=A City Of Sadness - Variation
TTITLE4=Theme Of Hiromi
TTITLE5=A City Of Sadness - Variation
TTITLE6=Gallantry - Dedicated To Hou Hsiao-Hsien
EXTD=YEAR: 1990
EXTT0=
EXTT1=
EXTT2=
EXTT3=
EXTT4=
EXTT5=
EXTT6=
PLAYORDER=
